<svg width="12" height="12" viewBox="0 0 12 12" fill="none" xmlns="http://www.w3.org/2000/svg">
<g clip-path="url(#clip0)">
<path d="M11.5771 6.94628C11.9351 3.93277 11.4051 2.03027 10.4491 1.16977L10.4496 1.16927C8.90655 -0.300232 3.69555 -0.517733 1.84955 1.23527C1.02055 2.09277 0.728551 3.35127 0.696551 4.90928C0.664551 6.46778 0.626551 9.38728 3.34705 10.1793H3.34955L3.34705 11.3888C3.34705 11.3888 3.32855 11.8788 3.64155 11.9773C3.99955 12.0933 4.16155 11.8658 5.27505 10.5358C7.13705 10.6973 8.56705 10.3273 8.72955 10.2733C9.10555 10.1473 11.2331 9.86578 11.5771 6.94628ZM5.45855 9.68478C5.45855 9.68478 4.28005 11.1543 3.91355 11.5358C3.79355 11.6598 3.66205 11.6483 3.66405 11.4023C3.66405 11.2408 3.67305 9.39428 3.67305 9.39428C1.36655 8.73328 1.50255 6.24728 1.52755 4.94677C1.55255 3.64577 1.79055 2.58027 2.49255 1.86277C4.11205 0.344269 8.68055 0.683769 9.84455 1.77777C11.2676 3.03927 10.7611 6.60328 10.7641 6.72478C10.4716 9.16178 8.74755 9.31628 8.43055 9.42178C8.29505 9.46678 7.03755 9.79028 5.45855 9.68478Z" fill="white"/>
<path d="M6.11117 2.14844C5.91867 2.14844 5.91867 2.44844 6.11117 2.45094C7.60467 2.46244 8.83467 3.50344 8.84817 5.41294C8.84817 5.61444 9.14317 5.61194 9.14067 5.41044H9.14017C9.12417 3.35294 7.78117 2.15994 6.11117 2.14844Z" fill="white"/>
<path d="M8.07646 5.09652C8.07196 5.29552 8.36646 5.30502 8.36896 5.10352C8.39346 3.96902 7.69396 3.03452 6.37945 2.93602C6.18695 2.92202 6.16695 3.22452 6.35895 3.23852C7.49895 3.32502 8.09946 4.10302 8.07646 5.09652Z" fill="white"/>
<path d="M7.76108 6.38705C7.51408 6.24405 7.26259 6.33305 7.15859 6.47355L6.94109 6.75505C6.83059 6.89805 6.62409 6.87905 6.62409 6.87905C5.11709 6.48055 4.71409 4.90355 4.71409 4.90355C4.71409 4.90355 4.69559 4.69005 4.83359 4.57555L5.10559 4.35055C5.24159 4.24255 5.32759 3.98255 5.18909 3.72705C4.81909 3.05855 4.57059 2.82805 4.44409 2.65105C4.31109 2.48455 4.11109 2.44705 3.90309 2.55955H3.89859C3.46609 2.81255 2.9926 3.28605 3.1441 3.77355C3.40259 4.28755 3.87759 5.92605 5.39159 7.16405C6.10309 7.74955 7.22908 8.34955 7.70708 8.48805L7.71158 8.49505C8.18258 8.65205 8.64058 8.16005 8.88508 7.71455V7.71105C8.99358 7.49555 8.95758 7.29155 8.79908 7.15805C8.51808 6.88405 8.09408 6.58155 7.76108 6.38705Z" fill="white"/>
<path d="M6.58467 4.05184C7.06518 4.07985 7.29818 4.33085 7.32318 4.84635C7.33218 5.04785 7.62469 5.03385 7.61569 4.83235C7.58368 4.15935 7.23268 3.78434 6.60067 3.74934C6.40817 3.73784 6.39017 4.04034 6.58467 4.05184Z" fill="white"/>
</g>
<defs>
<clipPath id="clip0">
<rect width="12" height="12" fill="white"/>
</clipPath>
</defs>
</svg>
