<svg width="20" height="20" viewBox="0 0 20 20" fill="none" xmlns="http://www.w3.org/2000/svg">
<g clip-path="url(#clip0)">
<path d="M8.5 0C3.81323 0 0 3.81323 0 8.5C0 13.187 3.81323 17 8.5 17C13.187 17 17 13.187 17 8.5C17 3.81323 13.187 0 8.5 0ZM8.5 15.4308C4.6784 15.4308 1.56923 12.3216 1.56923 8.50004C1.56923 4.67844 4.6784 1.56923 8.5 1.56923C12.3216 1.56923 15.4308 4.6784 15.4308 8.5C15.4308 12.3216 12.3216 15.4308 8.5 15.4308Z" fill="white"/>
<path d="M19.7619 18.6124L15.1006 13.9511C14.783 13.6335 14.2686 13.6335 13.951 13.9511C13.6334 14.2684 13.6334 14.7834 13.951 15.1007L18.6122 19.762C18.771 19.9208 18.9789 20.0002 19.187 20.0002C19.3949 20.0002 19.603 19.9208 19.7619 19.762C20.0795 19.4446 20.0795 18.9297 19.7619 18.6124Z" fill="white"/>
</g>
<defs>
<clipPath id="clip0">
<rect width="20" height="20" fill="white"/>
</clipPath>
</defs>
</svg>
