<svg width="14" height="13" viewBox="0 0 14 13" fill="none" xmlns="http://www.w3.org/2000/svg">
<path d="M8.19101 6.50949L13.253 1.44739C13.5824 1.11812 13.5824 0.585741 13.253 0.256473C12.9237 -0.0727956 12.3913 -0.0727956 12.062 0.256473L6.99994 5.31857L1.93799 0.256473C1.60856 -0.0727956 1.07634 -0.0727956 0.747067 0.256473C0.417644 0.585741 0.417644 1.11812 0.747067 1.44739L5.80902 6.50949L0.747067 11.5716C0.417644 11.9009 0.417644 12.4332 0.747067 12.7625C0.911162 12.9267 1.12692 13.0093 1.34253 13.0093C1.55813 13.0093 1.77374 12.9267 1.93799 12.7625L6.99994 7.7004L12.062 12.7625C12.2263 12.9267 12.4419 13.0093 12.6575 13.0093C12.8731 13.0093 13.0887 12.9267 13.253 12.7625C13.5824 12.4332 13.5824 11.9009 13.253 11.5716L8.19101 6.50949Z" fill="white"/>
</svg>
