<svg width="12" height="12" viewBox="0 0 12 12" fill="none" xmlns="http://www.w3.org/2000/svg">
<path d="M5.97656 0.375C2.68102 0.375 0 2.7405 0 5.64844C0 6.87684 0.486141 8.06714 1.37088 9.01059C1.54598 9.73261 1.33345 10.4975 0.806109 11.0249C0.585609 11.2454 0.741539 11.625 1.05469 11.625C2.0565 11.625 3.02227 11.2326 3.7398 10.5405C4.4498 10.7938 5.20099 10.9219 5.97656 10.9219C9.27211 10.9219 12 8.55637 12 5.64844C12 2.7405 9.27211 0.375 5.97656 0.375ZM3.21094 6.70312C2.62936 6.70312 2.15625 6.23002 2.15625 5.64844C2.15625 5.06686 2.62936 4.59375 3.21094 4.59375C3.79252 4.59375 4.26562 5.06686 4.26562 5.64844C4.26562 6.23002 3.79252 6.70312 3.21094 6.70312ZM6.02344 6.70312C5.44186 6.70312 4.96875 6.23002 4.96875 5.64844C4.96875 5.06686 5.44186 4.59375 6.02344 4.59375C6.60502 4.59375 7.07812 5.06686 7.07812 5.64844C7.07812 6.23002 6.60502 6.70312 6.02344 6.70312ZM8.83594 6.70312C8.25436 6.70312 7.78125 6.23002 7.78125 5.64844C7.78125 5.06686 8.25436 4.59375 8.83594 4.59375C9.41752 4.59375 9.89062 5.06686 9.89062 5.64844C9.89062 6.23002 9.41752 6.70312 8.83594 6.70312Z" fill="white"/>
</svg>
