<svg width="13" height="13" viewBox="0 0 13 13" fill="none" xmlns="http://www.w3.org/2000/svg">
<path d="M7.69101 6.50949L12.753 1.44739C13.0824 1.11812 13.0824 0.585741 12.753 0.256473C12.4237 -0.0727956 11.8913 -0.0727956 11.562 0.256473L6.49994 5.31857L1.43799 0.256473C1.10856 -0.0727956 0.576336 -0.0727956 0.247067 0.256473C-0.0823558 0.585741 -0.0823558 1.11812 0.247067 1.44739L5.30902 6.50949L0.247067 11.5716C-0.0823558 11.9009 -0.0823558 12.4332 0.247067 12.7625C0.411162 12.9267 0.626922 13.0093 0.842527 13.0093C1.05813 13.0093 1.27374 12.9267 1.43799 12.7625L6.49994 7.7004L11.562 12.7625C11.7263 12.9267 11.9419 13.0093 12.1575 13.0093C12.3731 13.0093 12.5887 12.9267 12.753 12.7625C13.0824 12.4332 13.0824 11.9009 12.753 11.5716L7.69101 6.50949Z" fill="#B0AFB5"/>
</svg>
