<svg width="30" height="30" viewBox="0 0 30 30" fill="none" xmlns="http://www.w3.org/2000/svg">
<path d="M29.7161 28.3679L21.9706 20.7461C23.9989 18.5424 25.2451 15.628 25.2451 12.421C25.2441 5.56064 19.5935 0 12.6224 0C5.65142 0 0.000732422 5.56064 0.000732422 12.421C0.000732422 19.2814 5.65142 24.842 12.6224 24.842C15.6344 24.842 18.3969 23.8002 20.5668 22.0683L28.3424 29.7201C28.7212 30.0933 29.3363 30.0933 29.7152 29.7201C30.0949 29.3469 30.0949 28.7411 29.7161 28.3679ZM12.6224 22.931C6.7242 22.931 1.94276 18.2255 1.94276 12.421C1.94276 6.61651 6.7242 1.91105 12.6224 1.91105C18.5207 1.91105 23.3021 6.61651 23.3021 12.421C23.3021 18.2255 18.5207 22.931 12.6224 22.931Z" fill="#adadad"/>
</svg>
