<svg width="42" height="43" viewBox="0 0 42 43" fill="none" xmlns="http://www.w3.org/2000/svg">
<path d="M10.0504 11.2904C11.1774 9.3383 11.741 8.36223 12.6692 7.82633C13.5974 7.29043 14.7244 7.29043 16.9786 7.29043L24.3222 7.29043C26.5763 7.29043 27.7034 7.29043 28.6316 7.82633C29.5598 8.36223 30.1234 9.3383 31.2504 11.2904L34.9222 17.6502C36.0493 19.6023 36.6128 20.5784 36.6128 21.6502C36.6128 22.722 36.0493 23.6981 34.9222 25.6502L31.2504 32.01C30.1234 33.9621 29.5598 34.9382 28.6316 35.4741C27.7034 36.01 26.5764 36.01 24.3222 36.01L16.9786 36.01C14.7244 36.01 13.5974 36.01 12.6692 35.4741C11.741 34.9382 11.1774 33.9621 10.0504 32.01L6.37856 25.6502C5.25149 23.6981 4.68796 22.722 4.68796 21.6502C4.68796 20.5784 5.25149 19.6023 6.37856 17.6502L10.0504 11.2904Z" fill="white"/>
</svg>
