<svg width="60" height="60" viewBox="0 0 60 60" fill="none" xmlns="http://www.w3.org/2000/svg">
<rect width="60" height="60" rx="15" fill="#1C1C1C"/>
<path d="M19.0504 19.2904C20.1774 17.3383 20.741 16.3622 21.6692 15.8263C22.5974 15.2904 23.7244 15.2904 25.9786 15.2904L33.3222 15.2904C35.5763 15.2904 36.7034 15.2904 37.6316 15.8263C38.5598 16.3622 39.1234 17.3383 40.2504 19.2904L43.9222 25.6502C45.0493 27.6023 45.6128 28.5784 45.6128 29.6502C45.6128 30.722 45.0493 31.6981 43.9222 33.6502L40.2504 40.01C39.1234 41.9621 38.5598 42.9382 37.6316 43.4741C36.7034 44.01 35.5764 44.01 33.3222 44.01L25.9786 44.01C23.7244 44.01 22.5974 44.01 21.6692 43.4741C20.741 42.9382 20.1774 41.9621 19.0504 40.01L15.3786 33.6502C14.2515 31.6981 13.688 30.722 13.688 29.6502C13.688 28.5784 14.2515 27.6023 15.3786 25.6502L19.0504 19.2904Z" fill="white"/>
</svg>
